<mxfile host="Electron" agent="Mozilla/5.0 (Windows NT 10.0; Win64; x64) AppleWebKit/537.36 (KHTML, like Gecko) draw.io/24.7.17 Chrome/128.0.6613.36 Electron/32.0.1 Safari/537.36" version="24.7.17">
  <diagram name="Page-1" id="k9M31NDV1mzF7wgZ9AgJ">
    <mxGraphModel dx="1434" dy="844" grid="1" gridSize="10" guides="1" tooltips="1" connect="1" arrows="1" fold="1" page="1" pageScale="1" pageWidth="850" pageHeight="1100" math="0" shadow="0">
      <root>
        <mxCell id="0" />
        <mxCell id="1" parent="0" />
        <mxCell id="7maX8-RVuHZkoP1kaSAC-10" style="edgeStyle=orthogonalEdgeStyle;rounded=0;orthogonalLoop=1;jettySize=auto;html=1;exitX=0.5;exitY=1;exitDx=0;exitDy=0;entryX=0.5;entryY=0;entryDx=0;entryDy=0;" edge="1" parent="1" source="7maX8-RVuHZkoP1kaSAC-1" target="7maX8-RVuHZkoP1kaSAC-2">
          <mxGeometry relative="1" as="geometry" />
        </mxCell>
        <mxCell id="7maX8-RVuHZkoP1kaSAC-1" value="Start" style="ellipse;whiteSpace=wrap;html=1;" vertex="1" parent="1">
          <mxGeometry x="365" y="20" width="120" height="80" as="geometry" />
        </mxCell>
        <mxCell id="7maX8-RVuHZkoP1kaSAC-11" style="edgeStyle=orthogonalEdgeStyle;rounded=0;orthogonalLoop=1;jettySize=auto;html=1;exitX=0.5;exitY=1;exitDx=0;exitDy=0;entryX=0.5;entryY=0;entryDx=0;entryDy=0;" edge="1" parent="1" source="7maX8-RVuHZkoP1kaSAC-2" target="7maX8-RVuHZkoP1kaSAC-3">
          <mxGeometry relative="1" as="geometry" />
        </mxCell>
        <mxCell id="7maX8-RVuHZkoP1kaSAC-2" value="Input&lt;div&gt;Hours&lt;/div&gt;" style="shape=parallelogram;perimeter=parallelogramPerimeter;whiteSpace=wrap;html=1;fixedSize=1;" vertex="1" parent="1">
          <mxGeometry x="365" y="120" width="120" height="60" as="geometry" />
        </mxCell>
        <mxCell id="7maX8-RVuHZkoP1kaSAC-12" style="edgeStyle=orthogonalEdgeStyle;rounded=0;orthogonalLoop=1;jettySize=auto;html=1;exitX=0.5;exitY=1;exitDx=0;exitDy=0;entryX=0.5;entryY=0;entryDx=0;entryDy=0;" edge="1" parent="1" source="7maX8-RVuHZkoP1kaSAC-3" target="7maX8-RVuHZkoP1kaSAC-4">
          <mxGeometry relative="1" as="geometry" />
        </mxCell>
        <mxCell id="7maX8-RVuHZkoP1kaSAC-3" value="Input&lt;div&gt;CostOfMaterials&lt;/div&gt;" style="shape=parallelogram;perimeter=parallelogramPerimeter;whiteSpace=wrap;html=1;fixedSize=1;" vertex="1" parent="1">
          <mxGeometry x="365" y="200" width="120" height="60" as="geometry" />
        </mxCell>
        <mxCell id="7maX8-RVuHZkoP1kaSAC-13" style="edgeStyle=orthogonalEdgeStyle;rounded=0;orthogonalLoop=1;jettySize=auto;html=1;exitX=0.5;exitY=1;exitDx=0;exitDy=0;entryX=0.5;entryY=0;entryDx=0;entryDy=0;" edge="1" parent="1" source="7maX8-RVuHZkoP1kaSAC-4" target="7maX8-RVuHZkoP1kaSAC-5">
          <mxGeometry relative="1" as="geometry" />
        </mxCell>
        <mxCell id="7maX8-RVuHZkoP1kaSAC-4" value="CostOfLabor =&lt;div&gt;Hours * $30&lt;/div&gt;" style="rounded=0;whiteSpace=wrap;html=1;" vertex="1" parent="1">
          <mxGeometry x="365" y="280" width="120" height="60" as="geometry" />
        </mxCell>
        <mxCell id="7maX8-RVuHZkoP1kaSAC-14" style="edgeStyle=orthogonalEdgeStyle;rounded=0;orthogonalLoop=1;jettySize=auto;html=1;exitX=0.5;exitY=1;exitDx=0;exitDy=0;entryX=0.5;entryY=0;entryDx=0;entryDy=0;" edge="1" parent="1" source="7maX8-RVuHZkoP1kaSAC-5" target="7maX8-RVuHZkoP1kaSAC-6">
          <mxGeometry relative="1" as="geometry" />
        </mxCell>
        <mxCell id="7maX8-RVuHZkoP1kaSAC-5" value="MarkUp =&lt;div&gt;CostOfMaterials * 120%&lt;/div&gt;" style="rounded=0;whiteSpace=wrap;html=1;" vertex="1" parent="1">
          <mxGeometry x="365" y="360" width="120" height="60" as="geometry" />
        </mxCell>
        <mxCell id="7maX8-RVuHZkoP1kaSAC-15" style="edgeStyle=orthogonalEdgeStyle;rounded=0;orthogonalLoop=1;jettySize=auto;html=1;exitX=0.5;exitY=1;exitDx=0;exitDy=0;entryX=0.5;entryY=0;entryDx=0;entryDy=0;" edge="1" parent="1" source="7maX8-RVuHZkoP1kaSAC-6" target="7maX8-RVuHZkoP1kaSAC-7">
          <mxGeometry relative="1" as="geometry" />
        </mxCell>
        <mxCell id="7maX8-RVuHZkoP1kaSAC-6" value="TotalCost =&lt;div&gt;CostOfLabor + MarkUp&lt;/div&gt;" style="rounded=0;whiteSpace=wrap;html=1;" vertex="1" parent="1">
          <mxGeometry x="365" y="440" width="120" height="60" as="geometry" />
        </mxCell>
        <mxCell id="7maX8-RVuHZkoP1kaSAC-16" style="edgeStyle=orthogonalEdgeStyle;rounded=0;orthogonalLoop=1;jettySize=auto;html=1;exitX=0.5;exitY=1;exitDx=0;exitDy=0;entryX=0.5;entryY=0;entryDx=0;entryDy=0;" edge="1" parent="1" source="7maX8-RVuHZkoP1kaSAC-7" target="7maX8-RVuHZkoP1kaSAC-8">
          <mxGeometry relative="1" as="geometry" />
        </mxCell>
        <mxCell id="7maX8-RVuHZkoP1kaSAC-7" value="Output&lt;div&gt;TotalCost&lt;/div&gt;" style="shape=parallelogram;perimeter=parallelogramPerimeter;whiteSpace=wrap;html=1;fixedSize=1;" vertex="1" parent="1">
          <mxGeometry x="365" y="520" width="120" height="60" as="geometry" />
        </mxCell>
        <mxCell id="7maX8-RVuHZkoP1kaSAC-17" style="edgeStyle=orthogonalEdgeStyle;rounded=0;orthogonalLoop=1;jettySize=auto;html=1;exitX=0.5;exitY=1;exitDx=0;exitDy=0;entryX=0.5;entryY=0;entryDx=0;entryDy=0;" edge="1" parent="1" source="7maX8-RVuHZkoP1kaSAC-8" target="7maX8-RVuHZkoP1kaSAC-9">
          <mxGeometry relative="1" as="geometry" />
        </mxCell>
        <mxCell id="7maX8-RVuHZkoP1kaSAC-8" value="Output =&amp;nbsp;&lt;div&gt;&quot;End Of Program&quot;&lt;/div&gt;" style="shape=parallelogram;perimeter=parallelogramPerimeter;whiteSpace=wrap;html=1;fixedSize=1;" vertex="1" parent="1">
          <mxGeometry x="365" y="600" width="120" height="60" as="geometry" />
        </mxCell>
        <mxCell id="7maX8-RVuHZkoP1kaSAC-9" value="Stop" style="ellipse;whiteSpace=wrap;html=1;" vertex="1" parent="1">
          <mxGeometry x="365" y="680" width="120" height="80" as="geometry" />
        </mxCell>
      </root>
    </mxGraphModel>
  </diagram>
</mxfile>
